<?xml version="1.0" encoding="UTF-8"?>
<svg xmlns="http://www.w3.org/2000/svg" viewBox="0 0 12 12"><style>.graf-body{fill:#e6e6e6}.graf-collar{fill:#D62B2F}@media (prefers-color-scheme: light){.graf-body{fill:#141414}}</style><title>Graf icon</title><path d="M1 9.25A0.25 0.25 0 0 1 1.25 9L1.25 9A0.25 0.25 0 0 0 1.5 8.75L1.5 7.75A0.25 0.25 0 0 1 1.75 7.5L1.75 7.5A0.25 0.25 0 0 0 2 7.25L2 5.425A0.425 0.425 0 0 1 2.425 5L4.575 5A0.425 0.425 0 0 0 5 4.575L5 2.75A0.25 0.25 0 0 0 4.75 2.5L4.75 2.5A0.25 0.25 0 0 0 4.5 2.75L4.5 4.075A0.425 0.425 0 0 1 4.075 4.5L2.925 4.5A0.425 0.425 0 0 1 2.5 4.075L2.5 1.425A0.425 0.425 0 0 1 2.925 1L3.5 1L3.5 1.25A0.75 0.75 0 0 0 4.25 2L4.25 2A0.75 0.75 0 0 0 5 1.25L5 1L7.075 1A0.425 0.425 0 0 1 7.5 1.425L7.5 1.575A0.425 0.425 0 0 0 7.925 2L10.575 2A0.425 0.425 0 0 1 11 2.425L11 4.075A0.425 0.425 0 0 1 10.575 4.5L6.925 4.5A0.425 0.425 0 0 0 6.5 4.925L6.5 7.25A0.25 0.25 0 0 0 6.75 7.5L6.75 7.5A0.25 0.25 0 0 1 7 7.75L7 8.75A0.25 0.25 0 0 0 7.25 9L7.25 9A0.25 0.25 0 0 1 7.5 9.25L7.5 10.575A0.425 0.425 0 0 1 7.075 11L1.425 11A0.425 0.425 0 0 1 1 10.575ZM2.925 9A0.425 0.425 0 0 0 2.5 9.425L2.5 9.575A0.425 0.425 0 0 0 2.925 10L3.075 10A0.425 0.425 0 0 0 3.5 9.575L3.5 9.425A0.425 0.425 0 0 0 3.075 9ZM3.75 3.5A0.25 0.25 0 0 0 3.5 3.75L3.5 3.75A0.25 0.25 0 0 0 3.75 4L3.75 4A0.25 0.25 0 0 0 4 3.75L4 3.75A0.25 0.25 0 0 0 3.75 3.5ZM5.75 9.5A0.25 0.25 0 0 0 5.5 9.75L5.5 9.75A0.25 0.25 0 0 0 5.75 10L5.75 10A0.25 0.25 0 0 0 6 9.75L6 9.75A0.25 0.25 0 0 0 5.75 9.5ZM6.25 2A0.25 0.25 0 0 0 6 2.25L6 2.25A0.25 0.25 0 0 0 6.25 2.5L6.75 2.5A0.25 0.25 0 0 0 7 2.25L7 2.25A0.25 0.25 0 0 0 6.75 2ZM6.75 3A0.25 0.25 0 0 0 6.5 3.25L6.5 3.25A0.25 0.25 0 0 0 6.75 3.5L6.75 3.5A0.25 0.25 0 0 0 7 3.25L7 3.25A0.25 0.25 0 0 0 6.75 3Z" class="graf-body" fill-rule="evenodd"/><path d="M2.000 5.425 A0.425 0.425 0 0 1 2.425 5.000 L6.500 5.000 L6.500 6.000 L2.000 6.000Z" class="graf-collar"/></svg>
